<svg width="32" height="32" viewBox="0 0 32 32" fill="none" xmlns="http://www.w3.org/2000/svg">
  <rect width="32" height="32" rx="6" fill="#1a1a1a"/>
  <path d="M8.5 11.5C8.5 9.567 10.067 8 12 8h8c1.933 0 3.5 1.567 3.5 3.5v1c0 1.933-1.567 3.5-3.5 3.5h-6c-1.105 0-2 .895-2 2v1c0 1.105.895 2 2 2h6c1.933 0 3.5 1.567 3.5 3.5v1c0 1.933-1.567 3.5-3.5 3.5h-8c-1.933 0-3.5-1.567-3.5-3.5v-1c0-1.933 1.567-3.5 3.5-3.5h6c1.105 0 2-.895 2-2v-1c0-1.105-.895-2-2-2h-6c-1.933 0-3.5-1.567-3.5-3.5v-1z" fill="#ffffff"/>
</svg>
